<svg width="48" height="41" viewBox="0 0 48 41" fill="none" xmlns="http://www.w3.org/2000/svg">
<g clip-path="url(#clip0_987_28808)">
<path d="M5.96556 21.1883C5.44887 21.1883 5.02612 20.7655 5.02612 20.2488C5.02612 16.8668 6.15346 13.7196 8.22025 11.0422C9.25364 9.727 10.4749 8.64668 11.884 7.75418C12.3068 7.47235 12.8705 7.61326 13.1523 8.03601C13.4342 8.45875 13.2933 9.02246 12.8705 9.30428C11.6492 10.1028 10.5688 11.0422 9.67636 12.2166C7.84446 14.5182 6.90501 17.2895 6.90501 20.2488C6.90501 20.7655 6.48226 21.1883 5.96556 21.1883ZM16.6753 7.70721C16.2525 7.70721 15.8767 7.42538 15.7828 7.00262C15.6888 6.48593 15.9707 6.0162 16.4874 5.87529C17.5677 5.59345 18.742 5.49951 19.8694 5.49951C20.3861 5.49951 20.8088 5.92226 20.8088 6.43895C20.8088 6.95565 20.3861 7.3784 19.8694 7.3784C18.8829 7.3784 17.8495 7.47235 16.9101 7.70721C16.8162 7.66024 16.7222 7.70721 16.6753 7.70721Z" fill="#223A94"/>
<path d="M20.339 1.87889C24.3316 1.87889 28.0894 3.14714 31.2836 5.49576C33.914 7.42161 35.9338 9.95813 37.249 12.9174L28.747 15.6888C27.0561 12.6825 23.9089 10.7566 20.339 10.7566C15.0311 10.7097 10.7097 15.0311 10.7097 20.339C10.7097 25.6469 15.0311 29.9683 20.339 29.9683C23.8619 29.9683 27.0561 28.0424 28.747 25.0362L37.249 27.8075C35.9807 30.7669 33.914 33.3033 31.2836 35.2292C28.0894 37.5778 24.2847 38.8461 20.339 38.8461C10.146 38.799 1.87889 30.532 1.87889 20.339C1.87889 10.146 10.146 1.87889 20.339 1.87889ZM20.339 0C9.1126 0 0 9.1126 0 20.339C0 31.5654 9.1126 40.678 20.339 40.678C29.3576 40.678 37.0141 34.7595 39.6915 26.6332L27.7137 22.7346C26.7272 25.8347 23.768 28.0894 20.339 28.0894C16.0645 28.0894 12.5885 24.6134 12.5885 20.339C12.5885 16.0645 16.0645 12.5885 20.339 12.5885C23.768 12.5885 26.7272 14.8432 27.7137 17.9434L39.6915 14.0447C37.0141 5.91851 29.3576 0 20.339 0Z" fill="#223A94"/>
<path d="M45.3752 16.4376C45.6571 17.7059 45.798 19.0211 45.798 20.3363C45.798 21.6515 45.6571 22.9667 45.3752 24.235L35.2761 20.9469L33.3503 20.3363L35.2292 19.7256L45.3752 16.4376ZM46.6434 14.042L34.6656 17.9407L27.2909 20.3363L34.6656 22.7319L46.6434 26.6305C47.301 24.6577 47.6299 22.5439 47.6299 20.3363C47.6299 18.1286 47.301 16.0148 46.6434 14.042Z" fill="#43B5C3"/>
</g>
<defs>
<clipPath id="clip0_987_28808">
<rect width="48" height="40.678" fill="white"/>
</clipPath>
</defs>
</svg>
